<?xml version="1.0" encoding="iso-8859-1"?>
<!-- Uploaded to: SVG Repo, www.svgrepo.com, Generator: SVG Repo Mixer Tools -->
<svg fill="#000000" height="800px" width="800px" version="1.1" id="Layer_1" xmlns="http://www.w3.org/2000/svg" xmlns:xlink="http://www.w3.org/1999/xlink" 
	 viewBox="0 0 512.001 512.001" xml:space="preserve">
<g>
	<g>
		<path d="M492.426,14.706c-19.608-19.609-51.513-19.609-71.12,0C404.33,31.683,39.382,396.632,19.645,416.37
			c-19.609,19.608-19.609,51.513-0.001,71.12c19.653,19.656,51.466,19.658,71.121,0l47.447-47.447
			c2.454,17.371,10.342,34.115,23.674,47.447c32.678,32.68,85.854,32.682,118.535,0c29.813-29.812,31.982-75.498,9.192-107.62
			c19.644-21.168,38.27-50.8,49.432-78.951c6.547-16.512,10.194-31.36,10.948-44.299c37.433,5.795,77.713-14.641,105.131-42.06
			c3.178-3.178,6.187-6.47,9.054-9.837v235.515c0,9.244-7.52,16.766-16.763,16.766c-9.243,0-16.763-7.52-16.763-16.763v-33.527
			c0-9.258-7.506-16.763-16.763-16.763c-9.258,0-16.763,7.505-16.763,16.763v33.527c0,27.73,22.56,50.29,50.29,50.29
			c27.73,0,50.178-22.561,50.178-50.292c0-12.612,0-346.235,0-360.63C511.719,59.969,510.078,32.357,492.426,14.706z
			 M279.021,204.406l23.707,23.707l-99.06,99.06l-23.707-23.707L279.021,204.406z M67.057,463.784c-6.55,6.55-17.155,6.553-23.706,0
			c-0.001,0-0.001,0-0.001,0c-6.552-6.553-6.552-17.155,0-23.707l112.903-112.904l23.707,23.707L67.057,463.784z M256.713,463.782
			c-19.61,19.609-51.513,19.608-71.123,0c-15.551-15.551-18.755-38.832-9.639-57.583l36.327,34.946
			c6.667,6.415,17.28,6.217,23.703-0.459c6.418-6.672,6.213-17.284-0.459-23.702l-35.674-34.317
			c18.699-8.72,41.564-5.304,56.864,9.995C276.37,412.319,276.369,444.128,256.713,463.782z M307.877,288.562
			c-9.556,24.105-25.991,50.297-42.701,68.354c-9.97-6.156-20.95-10.046-32.204-11.636l82.532-82.532
			C314.248,269.99,311.816,278.63,307.877,288.562z M431.417,190.854c-24.18,24.18-54.756,36.303-76.623,32.608l108.768-108.769
			C466.842,132.942,458.931,163.339,431.417,190.854z M468.721,62.12L326.434,204.406L302.728,180.7L445.014,38.413
			c6.552-6.552,17.154-6.552,23.707,0C475.273,44.967,475.273,55.568,468.721,62.12z"/>
	</g>
</g>
</svg>